<?xml version="1.0" encoding="UTF-8"?>
<svg width="24" height="24" viewBox="0 0 24 24" xmlns="http://www.w3.org/2000/svg" role="img" aria-label="Google">
  <defs/>
  <g fill="none" fill-rule="evenodd">
    <path d="M12 11.5v2.8h5.1c-.2 1.3-.9 2.4-1.9 3.1l3 2.3C20.9 19 22 15.9 22 12c0-.8-.1-1.6-.3-2.3H12z" fill="#4285F4"/>
    <path d="M6.3 14.1A6.9 6.9 0 0 1 5.6 12c0-.7.1-1.3.3-1.9L3.1 7.8A10 10 0 0 0 2 12c0 1.7.4 3.3 1.1 4.7l3.2-2.6z" fill="#FBBC05"/>
    <path d="M12 4.5c1.6 0 3 .6 4.1 1.6l3-3C17.4 1.3 14.9 0 12 0 7.7 0 3.9 2.3 2 5.8l3.3 2.6C6.1 6.1 8.8 4.5 12 4.5z" fill="#34A853"/>
    <path d="M22 12c0-.6-.1-1.1-.1-1.7H12v3.4h6.1c-.3 1.4-1.2 2.6-2.4 3.4l3 2.3c1.7-1.6 2.7-3.9 2.7-6.7z" fill="#EA4335"/>
  </g>
</svg>
